<svg xmlns="http://www.w3.org/2000/svg" viewBox="0 0 120 132" width="120" height="132">
  <defs>
    <radialGradient id="glow" cx="50%" cy="42%" r="65%">
      <stop offset="0%" stop-color="#ffb03a" stop-opacity="0.35"/>
      <stop offset="100%" stop-color="#ffb03a" stop-opacity="0"/>
    </radialGradient>
    <linearGradient id="ring" x1="0%" y1="0%" x2="100%" y2="100%">
      <stop offset="0%" stop-color="#ffe0a0"/>
      <stop offset="100%" stop-color="#ffb03a"/>
    </linearGradient>
    <linearGradient id="fill" x1="0%" y1="0%" x2="100%" y2="100%">
      <stop offset="0%" stop-color="#ffb03a" stop-opacity="0.22"/>
      <stop offset="100%" stop-color="#ffb03a" stop-opacity="0.06"/>
    </linearGradient>
  </defs>
  <circle cx="60" cy="66" r="58" fill="url(#glow)"/>
  <polygon points="60,6 111,32 111,88 60,114 9,88 9,32" fill="url(#fill)" stroke="url(#ring)" stroke-width="2.5"/>
  <polygon points="60,18 100,38 100,82 60,102 20,82 20,38" fill="none" stroke="#ffb03a" stroke-width="1" opacity="0.35"/>
  <g transform="translate(60,60)">
    
  <polygon points="0,-26 6,-8 25,-8 10,3 15,22 0,10 -15,22 -10,3 -25,-8 -6,-8"
    fill="#ffb03a" stroke="#5c3a06" stroke-width="1.4" stroke-linejoin="round"/>
  <g fill="#7a5216" opacity="0.9">
    <rect x="-28" y="18" width="7" height="16"/>
    <rect x="-18" y="12" width="7" height="22"/>
    <rect x="-8" y="20" width="7" height="14"/>
    <rect x="2" y="10" width="7" height="24"/>
    <rect x="12" y="16" width="7" height="18"/>
    <rect x="22" y="8" width="7" height="26"/>
  </g>

  </g>
</svg>