<svg xmlns="http://www.w3.org/2000/svg" viewBox="0 0 120 132" width="120" height="132">
  <defs>
    <radialGradient id="glow" cx="50%" cy="42%" r="65%">
      <stop offset="0%" stop-color="#ff4d6d" stop-opacity="0.35"/>
      <stop offset="100%" stop-color="#ff4d6d" stop-opacity="0"/>
    </radialGradient>
    <linearGradient id="ring" x1="0%" y1="0%" x2="100%" y2="100%">
      <stop offset="0%" stop-color="#ffb0bd"/>
      <stop offset="100%" stop-color="#ff4d6d"/>
    </linearGradient>
    <linearGradient id="fill" x1="0%" y1="0%" x2="100%" y2="100%">
      <stop offset="0%" stop-color="#ff4d6d" stop-opacity="0.22"/>
      <stop offset="100%" stop-color="#ff4d6d" stop-opacity="0.06"/>
    </linearGradient>
  </defs>
  <circle cx="60" cy="66" r="58" fill="url(#glow)"/>
  <polygon points="60,6 111,32 111,88 60,114 9,88 9,32" fill="url(#fill)" stroke="url(#ring)" stroke-width="2.5"/>
  <polygon points="60,18 100,38 100,82 60,102 20,82 20,38" fill="none" stroke="#ff4d6d" stroke-width="1" opacity="0.35"/>
  <g transform="translate(60,60)">
    
  <g stroke="#ff4d6d" stroke-width="3.4" stroke-linecap="square">
    <line x1="0" y1="-26" x2="0" y2="-10"/>
    <line x1="0" y1="26" x2="0" y2="10"/>
    <line x1="-26" y1="0" x2="-10" y2="0"/>
    <line x1="26" y1="0" x2="10" y2="0"/>
  </g>
  <circle r="6" fill="#ff4d6d"/>
  <circle r="20" fill="none" stroke="#ffb0bd" stroke-width="1.4" opacity="0.6"/>

  </g>
</svg>